<svg xmlns="http://www.w3.org/2000/svg" viewBox="0 0 252 215">
  <defs>
    <style>
      .cls-1 {
        fill: #444;
      }

      .cls-2 {
        fill: #fff;
      }

      .cls-3, .cls-7 {
        fill: #161616;
      }

      .cls-3 {
        opacity: 0.1;
      }

      .cls-4 {
        fill: #01c189;
      }

      .cls-5 {
        fill: #1e1e1e;
      }

      .cls-6 {
        opacity: 0.2;
      }
    </style>
  </defs>
  <g id="Icon">
    <g>
      <path class="cls-1" d="M71.71234,110.212a91.6429,91.6429,0,0,1,70.117-89.04645A82.362,82.362,0,1,0,47.423,155.6906a52.20462,52.20462,0,0,1-3.2626,9.16284A51.76267,51.76267,0,0,1,27.75307,184.8715a52.10929,52.10929,0,0,0,44.2224-19.29643,82.61383,82.61383,0,0,0,18.082,1.99632c.60895,0,1.21509-.01175,1.82075-.02559A90.86812,90.86812,0,0,1,71.71234,110.212Z"/>
      <g>
        <path class="cls-2" d="M245.63538,110.21191a81.98,81.98,0,0,0-16.1109-48.92382,32.55973,32.55973,0,0,1-42.32959-29.89454,82.35478,82.35478,0,1,0-5.83631,159.18067,52.10861,52.10861,0,0,0,44.22247,19.29639,52.09582,52.09582,0,0,1-19.66992-29.18116A82.3115,82.3115,0,0,0,245.63538,110.21191Z"/>
        <path class="cls-3" d="M245.63538,110.34473a81.84134,81.84134,0,0,0-16.2146-49.02149,32.44888,32.44888,0,0,1-9.68769,1.47168,32.77549,32.77549,0,0,1-3.33746-.17041A82.23968,82.23968,0,0,1,94.11975,154.63525a82.32766,82.32766,0,0,0,87.25684,35.96094,52.10889,52.10889,0,0,0,44.20446,19.27442,52.08989,52.08989,0,0,1-19.657-29.13184A82.17857,82.17857,0,0,0,245.63538,110.34473Z"/>
        <circle class="cls-4" cx="219.73329" cy="30.22673" r="22.93989"/>
        <path class="cls-5" d="M202.6183,76.8721a1.8886,1.8886,0,0,0-1.28706-1.40273,6.61928,6.61928,0,0,0-3.48366.24684s-77.55025,27.87418-81.97971,30.96115c-.95442.66516-1.27341,1.05042-1.43162,1.5039-.76645,2.1982,1.6197,3.167,1.6197,3.167l19.98748,6.51273a2.18775,2.18775,0,0,0,1.01145-.05974c4.547-2.87308,45.74779-28.88993,48.125-29.7642.3753-.11174.652.01623.57825.27475-.95183,3.33774-36.73618,35.14623-36.73618,35.14623a1.74181,1.74181,0,0,0-.22274.3689l-.04684-.02778L146.887,143.62522s-.781,6.0735,5.29279,0c4.28552-4.28552,8.43139-7.871,10.50678-9.6158,6.87217,4.745,14.26961,9.99442,17.46082,12.73952a5.54973,5.54973,0,0,0,4.04888,1.5618c3.03018-.11346,3.87555-3.44173,3.87555-3.44173s14.13181-56.87659,14.60422-64.49739c.04635-.74617.10965-1.22191.1158-1.73538A6.40791,6.40791,0,0,0,202.6183,76.8721Z"/>
      </g>
      <g class="cls-6">
        <path class="cls-7" d="M63.92312,141.76315a85.21981,85.21981,0,0,1-23.78581-3.49509A81.9866,81.9866,0,0,1,20.90346,129.62a82.64634,82.64634,0,0,0,26.3546,25.83919c-.01988.02964-.03851.05957-.05868.08891.07629.04666.15046.09625.22675.14232a52.20657,52.20657,0,0,1-3.26262,9.163,51.76315,51.76315,0,0,1-16.40735,20.01806A52.10961,52.10961,0,0,0,71.97861,165.575c.041.00939.08275.017.12383.02611l-.01041-.05047c1.50157.34332,3.07606.65348,4.72076.917a73.43364,73.43364,0,0,0,14.43327.86475,107.84494,107.84494,0,0,1-14.42286-26.4419A86.9472,86.9472,0,0,1,63.92312,141.76315Z"/>
      </g>
    </g>
  </g>
</svg>
